<?xml version="1.0" encoding="UTF-8"?>
<svg xmlns="http://www.w3.org/2000/svg" xmlns:xlink="http://www.w3.org/1999/xlink" width="37.5pt" height="37.5pt" viewBox="0 0 37.5 37.5" version="1.1">
<g id="surface2593">
<path style=" stroke:none;fill-rule:nonzero;fill:black;fill-opacity:1;" d="M 30.339844 2.960938 L 6.660156 2.960938 C 4.617188 2.960938 2.960938 4.617188 2.960938 6.660156 L 2.960938 30.339844 C 2.960938 32.382812 4.617188 34.039062 6.660156 34.039062 L 30.339844 34.039062 C 32.382812 34.039062 34.039062 32.382812 34.039062 30.339844 L 34.039062 6.660156 C 34.039062 4.617188 32.382812 2.960938 30.339844 2.960938 Z M 12.578125 14.800781 L 12.578125 28.859375 L 8.140625 28.859375 L 8.140625 14.800781 Z M 8.140625 10.707031 C 8.140625 9.671875 9.027344 8.878906 10.359375 8.878906 C 11.691406 8.878906 12.527344 9.671875 12.578125 10.707031 C 12.578125 11.742188 11.75 12.578125 10.359375 12.578125 C 9.027344 12.578125 8.140625 11.742188 8.140625 10.707031 Z M 28.859375 28.859375 L 24.421875 28.859375 C 24.421875 28.859375 24.421875 22.007812 24.421875 21.460938 C 24.421875 19.980469 23.679688 18.5 21.828125 18.46875 L 21.769531 18.46875 C 19.980469 18.46875 19.238281 19.996094 19.238281 21.460938 C 19.238281 22.132812 19.238281 28.859375 19.238281 28.859375 L 14.800781 28.859375 L 14.800781 14.800781 L 19.238281 14.800781 L 19.238281 16.695312 C 19.238281 16.695312 20.667969 14.800781 23.539062 14.800781 C 26.476562 14.800781 28.859375 16.820312 28.859375 20.914062 Z M 28.859375 28.859375 "/>
</g>
</svg>
